<svg xmlns="http://www.w3.org/2000/svg" width="384" height="384" viewBox="0 0 384 384" shape-rendering="crispEdges"><rect width="384" height="384" fill="#0E150D"/><path fill="#1A2818" d="M0 0h3v3h-3zM6 0h3v3h-3zM12 0h3v3h-3zM18 0h3v3h-3zM24 0h3v3h-3zM30 0h3v3h-3zM36 0h3v3h-3zM42 0h3v3h-3zM48 0h3v3h-3zM60 0h3v3h-3zM72 0h3v3h-3zM84 0h3v3h-3zM96 0h3v3h-3zM108 0h3v3h-3zM120 0h3v3h-3zM132 0h3v3h-3zM348 0h3v3h-3zM360 0h3v3h-3zM366 0h3v3h-3zM372 0h3v3h-3zM378 0h3v3h-3zM3 3h3v3h-3zM15 3h3v3h-3zM375 3h3v3h-3zM0 6h3v3h-3zM6 6h3v3h-3zM12 6h3v3h-3zM18 6h3v3h-3zM24 6h3v3h-3zM30 6h3v3h-3zM42 6h3v3h-3zM54 6h3v3h-3zM354 6h3v3h-3zM366 6h3v3h-3zM372 6h3v3h-3zM378 6h3v3h-3zM0 12h3v3h-3zM6 12h3v3h-3zM12 12h3v3h-3zM18 12h3v3h-3zM24 12h3v3h-3zM30 12h3v3h-3zM36 12h3v3h-3zM48 12h3v3h-3zM60 12h3v3h-3zM72 12h3v3h-3zM84 12h3v3h-3zM96 12h3v3h-3zM108 12h3v3h-3zM120 12h3v3h-3zM132 12h3v3h-3zM144 12h3v3h-3zM156 12h3v3h-3zM336 12h3v3h-3zM348 12h3v3h-3zM360 12h3v3h-3zM366 12h3v3h-3zM372 12h3v3h-3zM378 12h3v3h-3zM0 18h3v3h-3zM6 18h3v3h-3zM12 18h3v3h-3zM18 18h3v3h-3zM30 18h3v3h-3zM42 18h3v3h-3zM102 18h3v3h-3zM114 18h3v3h-3zM126 18h3v3h-3zM138 18h3v3h-3zM354 18h3v3h-3zM366 18h3v3h-3zM372 18h3v3h-3zM378 18h3v3h-3zM0 24h3v3h-3zM6 24h3v3h-3zM12 24h3v3h-3zM18 24h3v3h-3zM24 24h3v3h-3zM36 24h3v3h-3zM48 24h3v3h-3zM60 24h3v3h-3zM72 24h3v3h-3zM84 24h3v3h-3zM96 24h3v3h-3zM108 24h3v3h-3zM120 24h3v3h-3zM126 24h3v3h-3zM132 24h3v3h-3zM144 24h3v3h-3zM156 24h3v3h-3zM168 24h3v3h-3zM336 24h3v3h-3zM348 24h3v3h-3zM360 24h3v3h-3zM366 24h3v3h-3zM372 24h3v3h-3zM378 24h3v3h-3zM6 30h3v3h-3zM18 30h3v3h-3zM102 30h3v3h-3zM114 30h3v3h-3zM126 30h3v3h-3zM138 30h3v3h-3zM150 30h3v3h-3zM354 30h3v3h-3zM366 30h3v3h-3zM378 30h3v3h-3zM0 36h3v3h-3zM12 36h3v3h-3zM24 36h3v3h-3zM36 36h3v3h-3zM84 36h3v3h-3zM96 36h3v3h-3zM108 36h3v3h-3zM120 36h3v3h-3zM126 36h3v3h-3zM132 36h3v3h-3zM138 36h3v3h-3zM144 36h3v3h-3zM156 36h3v3h-3zM168 36h3v3h-3zM336 36h3v3h-3zM348 36h3v3h-3zM360 36h3v3h-3zM372 36h3v3h-3zM6 42h3v3h-3zM102 42h3v3h-3zM114 42h3v3h-3zM126 42h3v3h-3zM138 42h3v3h-3zM150 42h3v3h-3zM366 42h3v3h-3zM378 42h3v3h-3zM0 48h3v3h-3zM12 48h3v3h-3zM24 48h3v3h-3zM36 48h3v3h-3zM84 48h3v3h-3zM96 48h3v3h-3zM108 48h3v3h-3zM120 48h3v3h-3zM126 48h3v3h-3zM132 48h3v3h-3zM144 48h3v3h-3zM156 48h3v3h-3zM168 48h3v3h-3zM264 48h3v3h-3zM276 48h3v3h-3zM288 48h3v3h-3zM300 48h3v3h-3zM312 48h3v3h-3zM324 48h3v3h-3zM336 48h3v3h-3zM348 48h3v3h-3zM360 48h3v3h-3zM372 48h3v3h-3zM114 54h3v3h-3zM126 54h3v3h-3zM138 54h3v3h-3zM0 60h3v3h-3zM12 60h3v3h-3zM24 60h3v3h-3zM36 60h3v3h-3zM48 60h3v3h-3zM72 60h3v3h-3zM84 60h3v3h-3zM96 60h3v3h-3zM108 60h3v3h-3zM120 60h3v3h-3zM132 60h3v3h-3zM144 60h3v3h-3zM156 60h3v3h-3zM252 60h3v3h-3zM264 60h3v3h-3zM276 60h3v3h-3zM288 60h3v3h-3zM300 60h3v3h-3zM312 60h3v3h-3zM324 60h3v3h-3zM336 60h3v3h-3zM348 60h3v3h-3zM360 60h3v3h-3zM372 60h3v3h-3zM270 66h3v3h-3zM282 66h3v3h-3zM294 66h3v3h-3zM0 72h3v3h-3zM12 72h3v3h-3zM24 72h3v3h-3zM36 72h3v3h-3zM48 72h3v3h-3zM60 72h3v3h-3zM72 72h3v3h-3zM84 72h3v3h-3zM96 72h3v3h-3zM108 72h3v3h-3zM120 72h3v3h-3zM132 72h3v3h-3zM144 72h3v3h-3zM252 72h3v3h-3zM264 72h3v3h-3zM276 72h3v3h-3zM288 72h3v3h-3zM300 72h3v3h-3zM312 72h3v3h-3zM324 72h3v3h-3zM372 72h3v3h-3zM18 78h3v3h-3zM30 78h3v3h-3zM42 78h3v3h-3zM258 78h3v3h-3zM270 78h3v3h-3zM282 78h3v3h-3zM294 78h3v3h-3zM0 84h3v3h-3zM12 84h3v3h-3zM24 84h3v3h-3zM36 84h3v3h-3zM48 84h3v3h-3zM60 84h3v3h-3zM72 84h3v3h-3zM84 84h3v3h-3zM96 84h3v3h-3zM108 84h3v3h-3zM120 84h3v3h-3zM132 84h3v3h-3zM240 84h3v3h-3zM252 84h3v3h-3zM264 84h3v3h-3zM276 84h3v3h-3zM288 84h3v3h-3zM300 84h3v3h-3zM312 84h3v3h-3zM18 90h3v3h-3zM30 90h3v3h-3zM42 90h3v3h-3zM54 90h3v3h-3zM258 90h3v3h-3zM270 90h3v3h-3zM282 90h3v3h-3zM0 96h3v3h-3zM12 96h3v3h-3zM24 96h3v3h-3zM30 96h3v3h-3zM36 96h3v3h-3zM42 96h3v3h-3zM48 96h3v3h-3zM60 96h3v3h-3zM72 96h3v3h-3zM84 96h3v3h-3zM240 96h3v3h-3zM252 96h3v3h-3zM264 96h3v3h-3zM276 96h3v3h-3zM288 96h3v3h-3zM300 96h3v3h-3zM18 102h3v3h-3zM30 102h3v3h-3zM42 102h3v3h-3zM54 102h3v3h-3zM0 108h3v3h-3zM12 108h3v3h-3zM24 108h3v3h-3zM36 108h3v3h-3zM48 108h3v3h-3zM60 108h3v3h-3zM72 108h3v3h-3zM144 108h3v3h-3zM156 108h3v3h-3zM168 108h3v3h-3zM180 108h3v3h-3zM192 108h3v3h-3zM204 108h3v3h-3zM216 108h3v3h-3zM228 108h3v3h-3zM240 108h3v3h-3zM252 108h3v3h-3zM264 108h3v3h-3zM276 108h3v3h-3zM288 108h3v3h-3zM18 114h3v3h-3zM30 114h3v3h-3zM42 114h3v3h-3zM174 114h3v3h-3zM186 114h3v3h-3zM0 120h3v3h-3zM12 120h3v3h-3zM24 120h3v3h-3zM36 120h3v3h-3zM48 120h3v3h-3zM60 120h3v3h-3zM144 120h3v3h-3zM156 120h3v3h-3zM168 120h3v3h-3zM180 120h3v3h-3zM192 120h3v3h-3zM204 120h3v3h-3zM216 120h3v3h-3zM228 120h3v3h-3zM240 120h3v3h-3zM252 120h3v3h-3zM264 120h3v3h-3zM276 120h3v3h-3zM288 120h3v3h-3zM150 126h3v3h-3zM162 126h3v3h-3zM174 126h3v3h-3zM186 126h3v3h-3zM198 126h3v3h-3zM210 126h3v3h-3zM222 126h3v3h-3zM12 132h3v3h-3zM24 132h3v3h-3zM36 132h3v3h-3zM132 132h3v3h-3zM144 132h3v3h-3zM156 132h3v3h-3zM162 132h3v3h-3zM168 132h3v3h-3zM174 132h3v3h-3zM180 132h3v3h-3zM186 132h3v3h-3zM192 132h3v3h-3zM198 132h3v3h-3zM204 132h3v3h-3zM216 132h3v3h-3zM228 132h3v3h-3zM240 132h3v3h-3zM252 132h3v3h-3zM264 132h3v3h-3zM276 132h3v3h-3zM288 132h3v3h-3zM300 132h3v3h-3zM150 138h3v3h-3zM162 138h3v3h-3zM168 138h3v3h-3zM174 138h3v3h-3zM180 138h3v3h-3zM186 138h3v3h-3zM192 138h3v3h-3zM198 138h3v3h-3zM210 138h3v3h-3zM222 138h3v3h-3zM132 144h3v3h-3zM144 144h3v3h-3zM156 144h3v3h-3zM162 144h3v3h-3zM168 144h3v3h-3zM174 144h3v3h-3zM180 144h3v3h-3zM186 144h3v3h-3zM192 144h3v3h-3zM198 144h3v3h-3zM204 144h3v3h-3zM216 144h3v3h-3zM228 144h3v3h-3zM240 144h3v3h-3zM252 144h3v3h-3zM264 144h3v3h-3zM276 144h3v3h-3zM288 144h3v3h-3zM300 144h3v3h-3zM312 144h3v3h-3zM324 144h3v3h-3zM336 144h3v3h-3zM150 150h3v3h-3zM162 150h3v3h-3zM168 150h3v3h-3zM174 150h3v3h-3zM180 150h3v3h-3zM186 150h3v3h-3zM198 150h3v3h-3zM210 150h3v3h-3zM282 150h3v3h-3zM294 150h3v3h-3zM306 150h3v3h-3zM318 150h3v3h-3zM132 156h3v3h-3zM144 156h3v3h-3zM156 156h3v3h-3zM162 156h3v3h-3zM168 156h3v3h-3zM174 156h3v3h-3zM180 156h3v3h-3zM186 156h3v3h-3zM192 156h3v3h-3zM198 156h3v3h-3zM204 156h3v3h-3zM216 156h3v3h-3zM228 156h3v3h-3zM240 156h3v3h-3zM252 156h3v3h-3zM264 156h3v3h-3zM276 156h3v3h-3zM288 156h3v3h-3zM300 156h3v3h-3zM306 156h3v3h-3zM312 156h3v3h-3zM324 156h3v3h-3zM336 156h3v3h-3zM348 156h3v3h-3zM150 162h3v3h-3zM162 162h3v3h-3zM174 162h3v3h-3zM186 162h3v3h-3zM198 162h3v3h-3zM210 162h3v3h-3zM270 162h3v3h-3zM282 162h3v3h-3zM294 162h3v3h-3zM306 162h3v3h-3zM318 162h3v3h-3zM330 162h3v3h-3zM132 168h3v3h-3zM144 168h3v3h-3zM156 168h3v3h-3zM168 168h3v3h-3zM174 168h3v3h-3zM180 168h3v3h-3zM192 168h3v3h-3zM204 168h3v3h-3zM216 168h3v3h-3zM228 168h3v3h-3zM240 168h3v3h-3zM252 168h3v3h-3zM264 168h3v3h-3zM276 168h3v3h-3zM282 168h3v3h-3zM288 168h3v3h-3zM294 168h3v3h-3zM300 168h3v3h-3zM306 168h3v3h-3zM312 168h3v3h-3zM318 168h3v3h-3zM324 168h3v3h-3zM336 168h3v3h-3zM348 168h3v3h-3zM162 174h3v3h-3zM174 174h3v3h-3zM186 174h3v3h-3zM198 174h3v3h-3zM270 174h3v3h-3zM282 174h3v3h-3zM294 174h3v3h-3zM300 174h3v3h-3zM306 174h3v3h-3zM318 174h3v3h-3zM330 174h3v3h-3zM132 180h3v3h-3zM144 180h3v3h-3zM156 180h3v3h-3zM168 180h3v3h-3zM180 180h3v3h-3zM192 180h3v3h-3zM204 180h3v3h-3zM216 180h3v3h-3zM228 180h3v3h-3zM240 180h3v3h-3zM252 180h3v3h-3zM264 180h3v3h-3zM276 180h3v3h-3zM282 180h3v3h-3zM288 180h3v3h-3zM294 180h3v3h-3zM300 180h3v3h-3zM306 180h3v3h-3zM312 180h3v3h-3zM318 180h3v3h-3zM324 180h3v3h-3zM336 180h3v3h-3zM348 180h3v3h-3zM174 186h3v3h-3zM270 186h3v3h-3zM282 186h3v3h-3zM294 186h3v3h-3zM306 186h3v3h-3zM318 186h3v3h-3zM330 186h3v3h-3zM72 192h3v3h-3zM84 192h3v3h-3zM144 192h3v3h-3zM156 192h3v3h-3zM168 192h3v3h-3zM180 192h3v3h-3zM192 192h3v3h-3zM204 192h3v3h-3zM216 192h3v3h-3zM228 192h3v3h-3zM240 192h3v3h-3zM252 192h3v3h-3zM264 192h3v3h-3zM276 192h3v3h-3zM282 192h3v3h-3zM288 192h3v3h-3zM294 192h3v3h-3zM300 192h3v3h-3zM306 192h3v3h-3zM312 192h3v3h-3zM324 192h3v3h-3zM336 192h3v3h-3zM270 198h3v3h-3zM282 198h3v3h-3zM294 198h3v3h-3zM306 198h3v3h-3zM318 198h3v3h-3zM60 204h3v3h-3zM72 204h3v3h-3zM84 204h3v3h-3zM96 204h3v3h-3zM108 204h3v3h-3zM156 204h3v3h-3zM168 204h3v3h-3zM180 204h3v3h-3zM192 204h3v3h-3zM204 204h3v3h-3zM216 204h3v3h-3zM228 204h3v3h-3zM240 204h3v3h-3zM252 204h3v3h-3zM264 204h3v3h-3zM276 204h3v3h-3zM288 204h3v3h-3zM300 204h3v3h-3zM312 204h3v3h-3zM324 204h3v3h-3zM186 210h3v3h-3zM198 210h3v3h-3zM210 210h3v3h-3zM222 210h3v3h-3zM234 210h3v3h-3zM246 210h3v3h-3zM258 210h3v3h-3zM270 210h3v3h-3zM282 210h3v3h-3zM294 210h3v3h-3zM306 210h3v3h-3zM48 216h3v3h-3zM60 216h3v3h-3zM72 216h3v3h-3zM84 216h3v3h-3zM96 216h3v3h-3zM156 216h3v3h-3zM168 216h3v3h-3zM180 216h3v3h-3zM192 216h3v3h-3zM198 216h3v3h-3zM204 216h3v3h-3zM210 216h3v3h-3zM216 216h3v3h-3zM222 216h3v3h-3zM228 216h3v3h-3zM234 216h3v3h-3zM240 216h3v3h-3zM252 216h3v3h-3zM264 216h3v3h-3zM276 216h3v3h-3zM288 216h3v3h-3zM300 216h3v3h-3zM312 216h3v3h-3zM324 216h3v3h-3zM174 222h3v3h-3zM186 222h3v3h-3zM198 222h3v3h-3zM210 222h3v3h-3zM216 222h3v3h-3zM222 222h3v3h-3zM234 222h3v3h-3zM246 222h3v3h-3zM258 222h3v3h-3zM270 222h3v3h-3zM282 222h3v3h-3zM60 228h3v3h-3zM72 228h3v3h-3zM84 228h3v3h-3zM168 228h3v3h-3zM180 228h3v3h-3zM186 228h3v3h-3zM192 228h3v3h-3zM198 228h3v3h-3zM204 228h3v3h-3zM210 228h3v3h-3zM216 228h3v3h-3zM222 228h3v3h-3zM228 228h3v3h-3zM234 228h3v3h-3zM240 228h3v3h-3zM246 228h3v3h-3zM252 228h3v3h-3zM264 228h3v3h-3zM276 228h3v3h-3zM288 228h3v3h-3zM300 228h3v3h-3zM312 228h3v3h-3zM174 234h3v3h-3zM186 234h3v3h-3zM192 234h3v3h-3zM198 234h3v3h-3zM204 234h3v3h-3zM210 234h3v3h-3zM216 234h3v3h-3zM222 234h3v3h-3zM228 234h3v3h-3zM234 234h3v3h-3zM246 234h3v3h-3zM258 234h3v3h-3zM168 240h3v3h-3zM180 240h3v3h-3zM186 240h3v3h-3zM192 240h3v3h-3zM198 240h3v3h-3zM204 240h3v3h-3zM210 240h3v3h-3zM216 240h3v3h-3zM222 240h3v3h-3zM228 240h3v3h-3zM234 240h3v3h-3zM240 240h3v3h-3zM246 240h3v3h-3zM252 240h3v3h-3zM264 240h3v3h-3zM276 240h3v3h-3zM288 240h3v3h-3zM300 240h3v3h-3zM312 240h3v3h-3zM324 240h3v3h-3zM207 243h3v3h-3zM174 246h3v3h-3zM186 246h3v3h-3zM192 246h3v3h-3zM198 246h3v3h-3zM204 246h3v3h-3zM210 246h3v3h-3zM216 246h3v3h-3zM222 246h3v3h-3zM228 246h3v3h-3zM234 246h3v3h-3zM246 246h3v3h-3zM168 252h3v3h-3zM180 252h3v3h-3zM186 252h3v3h-3zM192 252h3v3h-3zM198 252h3v3h-3zM204 252h3v3h-3zM210 252h3v3h-3zM216 252h3v3h-3zM222 252h3v3h-3zM228 252h3v3h-3zM234 252h3v3h-3zM240 252h3v3h-3zM252 252h3v3h-3zM264 252h3v3h-3zM300 252h3v3h-3zM312 252h3v3h-3zM324 252h3v3h-3zM336 252h3v3h-3zM348 252h3v3h-3zM360 252h3v3h-3zM174 258h3v3h-3zM186 258h3v3h-3zM198 258h3v3h-3zM204 258h3v3h-3zM210 258h3v3h-3zM222 258h3v3h-3zM234 258h3v3h-3zM0 264h3v3h-3zM168 264h3v3h-3zM180 264h3v3h-3zM192 264h3v3h-3zM198 264h3v3h-3zM204 264h3v3h-3zM210 264h3v3h-3zM216 264h3v3h-3zM228 264h3v3h-3zM240 264h3v3h-3zM252 264h3v3h-3zM312 264h3v3h-3zM324 264h3v3h-3zM336 264h3v3h-3zM348 264h3v3h-3zM360 264h3v3h-3zM372 264h3v3h-3zM186 270h3v3h-3zM198 270h3v3h-3zM210 270h3v3h-3zM222 270h3v3h-3zM330 270h3v3h-3zM342 270h3v3h-3zM354 270h3v3h-3zM366 270h3v3h-3zM0 276h3v3h-3zM168 276h3v3h-3zM180 276h3v3h-3zM192 276h3v3h-3zM204 276h3v3h-3zM216 276h3v3h-3zM228 276h3v3h-3zM312 276h3v3h-3zM324 276h3v3h-3zM336 276h3v3h-3zM342 276h3v3h-3zM348 276h3v3h-3zM354 276h3v3h-3zM360 276h3v3h-3zM372 276h3v3h-3zM330 282h3v3h-3zM342 282h3v3h-3zM354 282h3v3h-3zM366 282h3v3h-3zM0 288h3v3h-3zM72 288h3v3h-3zM84 288h3v3h-3zM96 288h3v3h-3zM108 288h3v3h-3zM120 288h3v3h-3zM132 288h3v3h-3zM144 288h3v3h-3zM156 288h3v3h-3zM168 288h3v3h-3zM180 288h3v3h-3zM192 288h3v3h-3zM204 288h3v3h-3zM216 288h3v3h-3zM312 288h3v3h-3zM324 288h3v3h-3zM336 288h3v3h-3zM342 288h3v3h-3zM348 288h3v3h-3zM354 288h3v3h-3zM360 288h3v3h-3zM372 288h3v3h-3zM90 294h3v3h-3zM102 294h3v3h-3zM114 294h3v3h-3zM330 294h3v3h-3zM342 294h3v3h-3zM354 294h3v3h-3zM366 294h3v3h-3zM0 300h3v3h-3zM60 300h3v3h-3zM72 300h3v3h-3zM84 300h3v3h-3zM96 300h3v3h-3zM102 300h3v3h-3zM108 300h3v3h-3zM120 300h3v3h-3zM132 300h3v3h-3zM144 300h3v3h-3zM156 300h3v3h-3zM312 300h3v3h-3zM324 300h3v3h-3zM336 300h3v3h-3zM348 300h3v3h-3zM360 300h3v3h-3zM372 300h3v3h-3zM78 306h3v3h-3zM90 306h3v3h-3zM102 306h3v3h-3zM114 306h3v3h-3zM126 306h3v3h-3zM342 306h3v3h-3zM354 306h3v3h-3zM60 312h3v3h-3zM72 312h3v3h-3zM84 312h3v3h-3zM90 312h3v3h-3zM96 312h3v3h-3zM102 312h3v3h-3zM108 312h3v3h-3zM114 312h3v3h-3zM120 312h3v3h-3zM132 312h3v3h-3zM144 312h3v3h-3zM312 312h3v3h-3zM324 312h3v3h-3zM336 312h3v3h-3zM348 312h3v3h-3zM360 312h3v3h-3zM372 312h3v3h-3zM66 318h3v3h-3zM78 318h3v3h-3zM90 318h3v3h-3zM102 318h3v3h-3zM114 318h3v3h-3zM126 318h3v3h-3zM48 324h3v3h-3zM60 324h3v3h-3zM72 324h3v3h-3zM78 324h3v3h-3zM84 324h3v3h-3zM90 324h3v3h-3zM96 324h3v3h-3zM102 324h3v3h-3zM108 324h3v3h-3zM114 324h3v3h-3zM120 324h3v3h-3zM132 324h3v3h-3zM144 324h3v3h-3zM240 324h3v3h-3zM252 324h3v3h-3zM324 324h3v3h-3zM336 324h3v3h-3zM348 324h3v3h-3zM360 324h3v3h-3zM372 324h3v3h-3zM66 330h3v3h-3zM78 330h3v3h-3zM90 330h3v3h-3zM102 330h3v3h-3zM114 330h3v3h-3zM0 336h3v3h-3zM12 336h3v3h-3zM24 336h3v3h-3zM36 336h3v3h-3zM48 336h3v3h-3zM60 336h3v3h-3zM72 336h3v3h-3zM78 336h3v3h-3zM84 336h3v3h-3zM90 336h3v3h-3zM96 336h3v3h-3zM102 336h3v3h-3zM108 336h3v3h-3zM120 336h3v3h-3zM132 336h3v3h-3zM228 336h3v3h-3zM240 336h3v3h-3zM252 336h3v3h-3zM264 336h3v3h-3zM276 336h3v3h-3zM336 336h3v3h-3zM348 336h3v3h-3zM360 336h3v3h-3zM372 336h3v3h-3zM54 342h3v3h-3zM66 342h3v3h-3zM78 342h3v3h-3zM90 342h3v3h-3zM102 342h3v3h-3zM114 342h3v3h-3zM0 348h3v3h-3zM12 348h3v3h-3zM24 348h3v3h-3zM36 348h3v3h-3zM48 348h3v3h-3zM60 348h3v3h-3zM72 348h3v3h-3zM84 348h3v3h-3zM96 348h3v3h-3zM108 348h3v3h-3zM120 348h3v3h-3zM228 348h3v3h-3zM240 348h3v3h-3zM252 348h3v3h-3zM264 348h3v3h-3zM348 348h3v3h-3zM360 348h3v3h-3zM372 348h3v3h-3zM6 354h3v3h-3zM18 354h3v3h-3zM30 354h3v3h-3zM42 354h3v3h-3zM54 354h3v3h-3zM66 354h3v3h-3zM78 354h3v3h-3zM90 354h3v3h-3zM102 354h3v3h-3zM366 354h3v3h-3zM378 354h3v3h-3zM0 360h3v3h-3zM6 360h3v3h-3zM12 360h3v3h-3zM18 360h3v3h-3zM24 360h3v3h-3zM30 360h3v3h-3zM36 360h3v3h-3zM48 360h3v3h-3zM60 360h3v3h-3zM72 360h3v3h-3zM84 360h3v3h-3zM96 360h3v3h-3zM108 360h3v3h-3zM120 360h3v3h-3zM228 360h3v3h-3zM240 360h3v3h-3zM252 360h3v3h-3zM348 360h3v3h-3zM360 360h3v3h-3zM372 360h3v3h-3zM378 360h3v3h-3zM0 366h3v3h-3zM6 366h3v3h-3zM12 366h3v3h-3zM18 366h3v3h-3zM24 366h3v3h-3zM30 366h3v3h-3zM42 366h3v3h-3zM54 366h3v3h-3zM66 366h3v3h-3zM354 366h3v3h-3zM366 366h3v3h-3zM378 366h3v3h-3zM0 372h3v3h-3zM6 372h3v3h-3zM12 372h3v3h-3zM18 372h3v3h-3zM24 372h3v3h-3zM30 372h3v3h-3zM36 372h3v3h-3zM42 372h3v3h-3zM48 372h3v3h-3zM60 372h3v3h-3zM72 372h3v3h-3zM84 372h3v3h-3zM96 372h3v3h-3zM108 372h3v3h-3zM120 372h3v3h-3zM348 372h3v3h-3zM360 372h3v3h-3zM366 372h3v3h-3zM372 372h3v3h-3zM378 372h3v3h-3zM3 375h3v3h-3zM15 375h3v3h-3zM0 378h3v3h-3zM6 378h3v3h-3zM12 378h3v3h-3zM18 378h3v3h-3zM24 378h3v3h-3zM30 378h3v3h-3zM42 378h3v3h-3zM54 378h3v3h-3zM66 378h3v3h-3zM354 378h3v3h-3zM366 378h3v3h-3zM372 378h3v3h-3zM378 378h3v3h-3z"/><path fill="#FF5500" fill-opacity="0.16" d="M3 144h3v3h-3zM240 150h3v3h-3zM276 369h3v3h-3zM180 0h3v3h-3zM42 36h3v3h-3zM291 303h3v3h-3zM99 168h3v3h-3zM297 105h3v3h-3zM336 45h3v3h-3zM357 363h3v3h-3zM315 183h3v3h-3zM165 204h3v3h-3zM369 294h3v3h-3zM231 222h3v3h-3z"/><path fill="#FF5500" fill-opacity="0.165" d="M177 270h3v3h-3zM171 270h3v3h-3zM174 273h3v3h-3zM174 267h3v3h-3zM60 222h3v3h-3zM54 222h3v3h-3zM57 225h3v3h-3zM57 219h3v3h-3zM99 78h3v3h-3zM93 78h3v3h-3zM96 81h3v3h-3zM96 75h3v3h-3zM81 363h3v3h-3zM75 363h3v3h-3zM78 366h3v3h-3zM78 360h3v3h-3z"/><path fill="#FF5500" fill-opacity="0.3" d="M174 270h3v3h-3zM57 222h3v3h-3zM96 78h3v3h-3zM78 363h3v3h-3z"/></svg>
